<?xml version="1.0" standalone="no"?>
<!DOCTYPE svg PUBLIC "-//W3C//DTD SVG 20010904//EN"
 "http://www.w3.org/TR/2001/REC-SVG-20010904/DTD/svg10.dtd">
<svg version="1.0" xmlns="http://www.w3.org/2000/svg"
 width="512.000000pt" height="512.000000pt" viewBox="0 0 512.000000 512.000000"
 preserveAspectRatio="xMidYMid meet">
<metadata>
Created by potrace 1.11, written by Peter Selinger 2001-2013
</metadata>
<g transform="translate(0.000000,512.000000) scale(0.100000,-0.100000)"
fill="#000000" stroke="none">
<path d="M1965 4945 c-43 -20 -60 -35 -80 -75 -27 -50 -27 -400 -1 -458 23
-52 75 -84 142 -90 l54 -4 0 -714 c0 -436 -4 -736 -11 -771 -18 -105 -52 -186
-138 -328 -46 -77 -90 -151 -98 -165 -7 -14 -44 -74 -81 -135 -74 -121 -527
-869 -553 -913 -9 -15 -72 -119 -140 -232 -69 -113 -135 -232 -148 -265 -30
-76 -37 -222 -14 -299 26 -87 97 -190 177 -254 29 -23 120 -61 171 -72 33 -7
478 -9 1345 -8 l1295 3 69 29 c91 39 189 133 234 226 55 112 62 256 19 378
-15 41 -119 225 -272 477 -137 226 -266 439 -287 475 -49 81 -53 88 -105 172
-24 38 -43 70 -43 73 0 2 -16 30 -36 61 -55 86 -348 576 -361 604 -7 14 -22
57 -35 95 -23 70 -23 71 -26 818 l-3 747 41 0 c44 0 102 20 126 45 44 43 49
75 48 282 0 178 -2 201 -19 228 -57 88 -30 85 -677 85 -463 -1 -568 -3 -593
-15z"/>
</g>
</svg>
